<?xml version="1.0" encoding="utf-8"?>
<!-- Generator: Adobe Illustrator 23.0.3, SVG Export Plug-In . SVG Version: 6.00 Build 0)  -->
<svg version="1.1" id="Layer_1" xmlns="http://www.w3.org/2000/svg" xmlns:xlink="http://www.w3.org/1999/xlink" x="0px" y="0px"
	 width="100px" height="100px" viewBox="0 0 100 100" style="enable-background:new 0 0 100 100;" xml:space="preserve">
<style type="text/css">
	.st0{fill:#FFFFFF;}
</style>
<path id="Logo_K2LIS_-_Direct_Black_2_" class="st0" d="M100,52.1V95c0,1.5-1.2,2.8-2.8,2.8H60.7C60.7,74.6,77.8,55.4,100,52.1z
	 M60.7,2.3v40.1c-1.7,1.4-3.3,2.9-4.8,4.4c-6.6,6.6-11.8,14.3-15.4,22.9c-0.4,0.9-0.8,1.9-1.1,2.8V2.3H2.8C1.2,2.3,0,3.5,0,5v25.5
	c6.7,0.7,13.2,2.3,19.5,5c5.5,2.3,10.6,5.4,15.3,9v33.3C28.3,64.3,15.3,54.4,0,52.1V95c0,1.5,1.2,2.8,2.8,2.8h36.5
	c0-9.1,1.8-18,5.3-26.3c3.4-8,8.3-15.3,14.5-21.5c6.2-6.2,13.4-11.1,21.5-14.5c6.2-2.6,12.8-4.3,19.5-5V5c0-1.5-1.2-2.8-2.8-2.8
	H60.7z"/>
</svg>
