<?xml version="1.0" encoding="utf-8"?>
<!-- Generator: Adobe Illustrator 23.0.3, SVG Export Plug-In . SVG Version: 6.00 Build 0)  -->
<svg version="1.1" id="Layer_1" xmlns="http://www.w3.org/2000/svg" xmlns:xlink="http://www.w3.org/1999/xlink" x="0px" y="0px"
	 width="91.1px" height="100px" viewBox="0 0 91.1 100" style="enable-background:new 0 0 91.1 100;" xml:space="preserve">
<style type="text/css">
	.st0{fill:#FFFFFF;}
</style>
<path class="st0" d="M45.6,99.9C20.4,99.9,0,79.5,0,54.4C0,38.1,8.7,23,22.8,14.9c2.3-1.3,5.3-0.5,6.6,1.8c1.3,2.3,0.5,5.3-1.8,6.6
	c-11.1,6.4-18,18.3-18,31.1c0,19.8,16.1,35.9,35.9,35.9s35.9-16.1,35.9-35.9c0-12.8-6.9-24.7-18-31.1c-2.3-1.3-3.1-4.3-1.8-6.6
	c1.3-2.3,4.3-3.1,6.6-1.8C82.4,23,91.1,38.1,91.1,54.4C91.1,79.5,70.7,99.9,45.6,99.9z M45.6,50.4c-2.7,0-4.8-2.2-4.8-4.8V4.8
	c0-2.7,2.2-4.8,4.8-4.8s4.8,2.2,4.8,4.8v40.8C50.4,48.2,48.2,50.4,45.6,50.4z"/>
</svg>
